# xmcd CD database file
#
# Track frame offsets:
#	150
#	20522
#	43420
#	68672
#
# Disc length: 1184 seconds
#
# Revision: 1
# Processed by: cddbd v1.5.1PL2 Copyright (c) Steve Scherf et al.
# Submitted via: CDex 1.60beta1-cs1
#
DISCID=31049e04
DTITLE=広末涼子 - 果実
DYEAR=2000
DGENRE=JPop
TTITLE0=果実
TTITLE1=Crescent River ～三日月の舟に揺られて～
TTITLE2=LETTERS
TTITLE3=果実 (Instrumental)
EXTD=YEAR: 2000
EXTT0=
EXTT1=
EXTT2=
EXTT3=
PLAYORDER=
